<?xml version="1.0" encoding="UTF-8" standalone="no"?>
<!-- Created with Inkscape (http://www.inkscape.org/) -->

<svg
   width="979"
   height="1120"
   viewBox="0 0 259.02735 296.33372"
   version="1.1"
   id="svg1"
   xmlns="http://www.w3.org/2000/svg"
   xmlns:svg="http://www.w3.org/2000/svg">
  <defs
     id="defs1" />
  <g
     id="layer1"
     transform="translate(-2.5389297,-2.6129996)">
    <path
       style="fill:#b8d9ff;fill-opacity:1;stroke:#3b4563;stroke-width:5.82083;stroke-dasharray:none;stroke-opacity:1"
       d="m 10.583333,158.75 c 0,-132.291667 15.875,-148.166667 121.708327,-148.166667 105.83334,0 120.76527,15.613036 121.28919,148.166667 0.52393,132.55363 -15.97978,132.29166 -121.55115,132.29166 -105.571367,0 -121.603545,-0.26196 -121.446367,-132.29166 z"
       id="path6" />
    <path
       style="fill:#e26b73;fill-opacity:1;stroke:none;stroke-width:5.82083;stroke-dasharray:none;stroke-opacity:1"
       d="m 12.05033,127.05239 58.679866,22.26692 79.898924,10.21658 103.2137,-3.92946 -3.40553,82.2566 -17.02764,38.24671 L 196.21081,290.7797 57.893976,288.16006 24.362623,269.03672 9.4306929,200.40222 Z"
       id="path12" />
    <path
       style="display:inline;fill:#b8d9ff;fill-opacity:1;stroke:#3b4563;stroke-width:15.875;stroke-dasharray:none;stroke-opacity:1"
       d="M 10.743706,127.07211 C 77.058302,158.56228 164.11936,166.3422 252.66232,154.85755"
       id="path7" />
    <path
       style="display:inline;fill:none;fill-opacity:1;stroke:#3b4563;stroke-width:15.875;stroke-dasharray:none;stroke-opacity:1"
       d="M 18.894103,254.88516 C 76.68783,242.65956 148.92999,41.863404 150.41188,11.855123"
       id="path8" />
    <path
       style="display:inline;fill:none;fill-opacity:1;stroke:#3b4563;stroke-width:15.875;stroke-dasharray:none;stroke-opacity:1"
       d="M 151.5233,11.114178 C 147.81857,144.85479 149.30046,273.0383 242.28909,261.18319"
       id="path9" />
    <path
       style="fill:none;fill-opacity:1;stroke:#3b4563;stroke-width:15.875;stroke-dasharray:none;stroke-opacity:1"
       d="m 10.583333,158.75 c 0,-132.291667 15.875,-148.166667 121.708327,-148.166667 105.83334,0 120.76527,15.613036 121.28919,148.166667 0.52393,132.55363 -15.97978,132.29166 -121.55115,132.29166 -105.571367,0 -121.603545,-0.26196 -121.446367,-132.29166 z"
       id="path13" />
  </g>
</svg>
